# xmcd CD database file
#
# Track frame offsets:
#	150
#	23976
#	45051
#	69038
#	93032
#	114551
#	136373
#	166863
#	190485
#	210080
#
# Disc length: 3128 seconds
#
# Revision: 0
# Processed by: cddbd v1.5.2PL0 Copyright (c) Steve Scherf et al.
# Submitted via: CDex 1.70beta2
#
DISCID=700c360a
DTITLE=Lady Gaga - Jazzy Gaga
DYEAR=2011
DGENRE=Jazz
TTITLE0=Telephone feat. Aki Sawazaki(U-TANS)/Makoto Miura
TTITLE1=Poker Face feat. Mariko Ide - niche bigt band
TTITLE2=Bad Romance - ROOT SOUL
TTITLE3=Alejandro feat. Saigenji - Makoto Miura
TTITLE4=Paparazzi - Makoto Miura
TTITLE5=Boys Boys Boys feat. Karen Aoki - niche big band
TTITLE6=Speechless - Junpei Shiina
TTITLE7=Just Dance feat. Aki Sawazaki(U-TANS)/Makoto Miura
TTITLE8=Poker Face DJ Niche Remix- - DJ Niche
TTITLE9=Telephone -Samba de COMEDY TONIGHT mix- - Makoto Miura
EXTD=YEAR: 2011
EXTT0=
EXTT1=
EXTT2=
EXTT3=
EXTT4=
EXTT5=
EXTT6=
EXTT7=
EXTT8=
EXTT9=
PLAYORDER=
